<?xml version="1.0" standalone="no"?>
<!DOCTYPE svg PUBLIC "-//W3C//DTD SVG 20010904//EN"
 "http://www.w3.org/TR/2001/REC-SVG-20010904/DTD/svg10.dtd">
<svg version="1.0" xmlns="http://www.w3.org/2000/svg"
 width="1024.000000pt" height="1024.000000pt" viewBox="0 0 1024.000000 1024.000000"
 preserveAspectRatio="xMidYMid meet">
<metadata>
Created by potrace 1.14, written by Peter Selinger 2001-2017
</metadata>
<g transform="translate(0.000000,1024.000000) scale(0.100000,-0.100000)"
fill="#000000" stroke="none">
<path d="M9280 9380 c-56 -15 -104 -32 -185 -65 -11 -5 -22 -9 -25 -9 -9 -2
-141 -57 -197 -82 -28 -13 -56 -24 -61 -24 -10 0 -532 -263 -657 -330 -134
-73 -286 -158 -364 -205 -37 -22 -207 -130 -216 -137 -27 -21 -142 -99 -155
-105 -8 -4 -21 -12 -30 -19 -8 -7 -73 -58 -143 -114 -71 -56 -160 -132 -199
-170 -63 -63 -88 -77 -88 -50 0 5 -18 48 -41 97 -22 48 -50 108 -61 133 -37
86 -129 265 -147 286 -42 52 -118 48 -158 -8 -25 -36 -23 -81 7 -130 17 -29
91 -175 95 -188 3 -10 23 -56 53 -120 79 -173 94 -210 88 -210 -2 0 -46 11
-99 24 -105 27 -164 36 -277 41 -41 3 -77 5 -80 6 -21 5 -249 -9 -260 -16 -3
-2 -26 -6 -50 -10 -180 -26 -427 -125 -600 -240 -47 -32 -86 -61 -88 -66 -2
-5 -8 -9 -13 -9 -12 0 -62 -44 -162 -143 -43 -43 -80 -77 -82 -75 -1 2 -12 44
-24 93 -12 50 -23 95 -25 100 -1 6 -8 29 -15 52 -21 74 -100 255 -148 338
-125 219 -308 413 -488 518 -163 95 -335 146 -507 151 -62 2 -138 0 -168 -5
-30 -5 -68 -11 -85 -13 -42 -6 -160 -48 -225 -81 -213 -107 -417 -339 -470
-535 -7 -25 -12 -45 -12 -45 0 0 -6 -31 -14 -70 -20 -105 -10 -330 17 -403 5
-14 8 -27 5 -29 -2 -2 -39 3 -82 12 -124 25 -337 22 -412 -6 -15 -6 -29 -10
-32 -10 -15 1 -62 -16 -119 -41 -121 -54 -267 -175 -358 -298 -38 -50 -121
-203 -127 -233 -2 -6 -6 -19 -9 -27 -12 -29 -36 -136 -42 -187 -19 -158 2
-336 57 -481 12 -31 23 -61 24 -67 7 -37 123 -217 187 -291 51 -59 195 -194
206 -194 3 0 17 -10 31 -23 53 -47 281 -178 349 -199 8 -2 -8 -12 -35 -22 -27
-10 -53 -23 -58 -27 -6 -5 -15 -9 -21 -9 -31 0 -265 -137 -388 -227 l-59 -43
26 -10 c15 -5 37 -12 49 -14 92 -20 260 -72 309 -97 10 -5 24 -9 31 -9 12 0
191 -71 297 -117 143 -64 339 -166 472 -249 80 -49 153 -99 156 -106 2 -5 8
-8 13 -8 10 0 256 -181 294 -216 11 -11 43 -37 70 -59 62 -49 378 -364 425
-423 19 -24 45 -54 56 -67 12 -13 44 -52 70 -87 27 -35 52 -65 56 -66 4 -2 8
-10 8 -18 0 -8 3 -14 8 -14 4 0 18 -18 32 -40 14 -22 28 -40 32 -40 5 0 8 -6
8 -13 0 -8 9 -22 20 -32 11 -10 20 -22 20 -27 0 -5 5 -14 10 -21 61 -71 266
-442 335 -607 15 -36 38 -89 51 -118 13 -29 26 -61 27 -70 2 -9 11 -34 20 -55
17 -39 81 -241 112 -349 9 -32 19 -58 23 -58 14 0 153 219 210 330 57 111 66
133 102 230 l17 44 28 -74 c26 -72 102 -234 118 -255 4 -5 26 -39 48 -75 23
-36 45 -66 50 -68 5 -2 9 -8 9 -14 0 -14 91 -118 160 -183 29 -27 64 -60 77
-72 13 -13 26 -23 28 -23 3 0 26 -16 51 -36 26 -19 92 -57 148 -84 271 -132
561 -147 826 -42 77 31 200 100 200 113 0 5 6 9 13 9 27 0 227 210 227 239 0
6 4 11 8 11 10 0 76 131 91 181 12 36 18 62 27 109 2 14 7 39 11 55 5 25 8
230 3 230 -1 0 -3 11 -5 25 -2 14 -6 39 -10 55 -20 98 -20 98 6 90 114 -37
355 -40 480 -7 123 33 238 91 328 167 26 21 128 124 147 148 56 69 146 229
159 284 3 10 14 54 25 98 26 99 32 279 13 388 -27 160 -94 320 -192 458 -61
85 -238 269 -260 269 -6 0 -11 4 -11 9 0 7 -96 76 -165 118 -154 94 -443 201
-615 227 -19 3 -46 8 -60 12 -14 3 -31 6 -39 6 -7 1 8 21 35 45 77 70 137 128
164 159 83 95 193 259 238 354 38 83 69 155 77 185 10 36 10 36 18 55 9 22 36
130 43 174 3 21 8 48 10 60 16 81 20 240 10 381 -6 82 -8 94 -20 155 -4 19 -8
42 -10 50 -22 119 -136 409 -181 460 -8 8 -14 19 -14 23 0 4 -30 51 -68 104
-122 172 -313 348 -494 454 -84 49 -86 44 50 179 91 91 153 144 281 238 30 23
60 45 65 50 8 7 69 48 165 113 8 5 58 36 110 69 52 33 100 63 106 67 23 18
285 163 399 222 50 25 93 50 97 56 4 5 8 7 8 2 0 -4 18 4 40 18 22 14 46 25
54 25 8 0 16 3 18 8 4 9 293 152 307 152 6 0 11 5 11 10 0 6 6 10 13 10 11 0
98 35 222 89 84 37 264 101 284 101 8 0 34 9 57 21 40 19 63 53 58 87 -1 6 -2
18 -3 26 0 8 -12 27 -25 43 -29 34 -72 37 -166 13z"/>
<path d="M1419 4345 c-57 -122 -131 -348 -116 -356 7 -4 35 -10 62 -14 28 -5
55 -10 60 -11 6 -2 24 -6 40 -9 259 -53 650 -207 888 -348 43 -26 83 -47 88
-47 5 0 9 -4 9 -10 0 -5 4 -10 9 -10 8 0 135 -82 166 -108 6 -4 28 -21 50 -37
166 -124 379 -323 497 -465 35 -41 69 -81 76 -89 8 -8 32 -39 55 -70 22 -31
43 -58 47 -61 16 -13 144 -219 206 -330 70 -125 174 -349 174 -373 0 -7 4 -17
9 -22 30 -32 173 -548 163 -588 -3 -12 60 -5 77 7 8 6 15 9 15 7 1 -2 33 6 71
19 39 14 72 25 75 25 3 0 26 10 52 22 26 12 75 34 108 49 l61 27 -6 46 c-5 45
-19 131 -29 181 -14 73 -37 170 -47 200 -4 14 -13 45 -19 70 -6 25 -14 52 -17
60 -3 8 -8 24 -10 35 -1 11 -7 29 -12 40 -5 11 -14 34 -20 50 -38 110 -91 236
-138 333 -66 135 -143 276 -155 280 -4 2 -8 8 -8 13 0 10 -125 204 -145 225
-5 6 -19 23 -30 39 -41 58 -189 233 -254 300 -114 118 -299 286 -340 309 -9 5
-18 13 -21 17 -11 17 -181 134 -300 208 -284 176 -619 318 -935 395 -122 30
-149 36 -240 50 -22 4 -51 9 -65 11 -14 2 -44 7 -68 10 l-43 6 -40 -86z"/>
<path d="M1234 3298 c11 -132 15 -162 36 -263 28 -131 26 -125 40 -160 6 -16
11 -32 11 -35 -4 -35 139 -377 178 -422 8 -10 10 -18 5 -18 -5 0 -4 -4 1 -8 6
-4 32 -41 57 -82 25 -41 55 -85 65 -97 10 -13 34 -44 53 -70 121 -166 328
-354 534 -488 83 -54 328 -182 364 -190 9 -2 60 -19 112 -38 89 -31 111 -38
180 -52 14 -3 33 -8 42 -11 10 -3 28 -7 40 -9 13 -2 50 -9 84 -15 33 -5 97
-12 143 -15 45 -3 88 -6 94 -8 16 -3 15 27 -1 88 -7 28 -15 59 -17 70 -14 78
-122 387 -137 393 -4 2 -8 8 -8 13 0 17 -66 151 -114 233 -25 43 -46 80 -46
83 0 3 -13 22 -30 43 -16 21 -30 41 -30 45 0 10 -117 162 -190 245 -138 158
-341 340 -465 418 -22 14 -42 28 -45 32 -6 7 -111 72 -185 113 -84 46 -236
117 -320 149 -44 16 -97 36 -118 44 -20 8 -44 14 -52 14 -7 0 -26 5 -42 12
-34 13 -30 12 -123 33 -137 30 -122 36 -116 -47z"/>
</g>
</svg>
