<?xml version="1.0" standalone="no"?>
<!DOCTYPE svg PUBLIC "-//W3C//DTD SVG 20010904//EN"
 "http://www.w3.org/TR/2001/REC-SVG-20010904/DTD/svg10.dtd">
<svg version="1.0" xmlns="http://www.w3.org/2000/svg"
 width="1024.000000pt" height="1024.000000pt" viewBox="0 0 1024.000000 1024.000000"
 preserveAspectRatio="xMidYMid meet">
<metadata>
Created by potrace 1.14, written by Peter Selinger 2001-2017
</metadata>
<g transform="translate(0.000000,1024.000000) scale(0.100000,-0.100000)"
fill="#000000" stroke="none">
<path d="M2547 10235 c-1 -2 -74 -5 -162 -9 -88 -3 -171 -8 -185 -10 -14 -3
-61 -7 -105 -10 -44 -4 -105 -10 -135 -16 -30 -5 -72 -11 -92 -14 -223 -33
-535 -145 -760 -274 -59 -34 -153 -96 -156 -104 -2 -5 -10 -8 -17 -8 -7 0 -15
-3 -17 -8 -1 -4 -23 -23 -48 -42 -85 -66 -273 -246 -320 -306 -8 -11 -31 -40
-51 -64 -68 -84 -169 -248 -233 -377 -57 -114 -157 -384 -170 -460 -3 -15 -8
-39 -11 -53 -8 -42 -15 -82 -26 -145 -5 -33 -12 -70 -14 -83 -2 -13 -7 -53
-10 -90 -4 -37 -8 -78 -11 -92 -15 -93 -18 -652 -19 -2945 0 -2308 3 -2757 19
-2925 3 -25 7 -79 11 -120 3 -41 8 -82 10 -90 2 -8 6 -37 10 -65 22 -177 107
-463 189 -636 119 -251 242 -427 430 -614 321 -318 697 -520 1121 -600 168
-31 304 -50 457 -62 125 -11 5538 -10 5703 0 72 4 139 10 150 12 11 3 47 7 80
10 33 2 69 7 80 9 11 2 41 7 67 10 137 19 400 88 513 136 76 32 223 104 235
115 8 8 18 13 22 12 11 -3 222 140 295 199 181 148 315 297 446 492 172 257
264 495 342 882 5 27 15 94 20 140 3 25 7 63 10 85 3 22 8 94 13 160 9 160 9
5505 -1 5665 -22 348 -79 644 -170 880 -168 436 -500 829 -897 1064 -52 31
-102 61 -110 66 -8 6 -22 13 -30 16 -8 4 -42 19 -75 34 -175 82 -447 162 -624
185 -61 7 -115 15 -136 20 -11 2 -63 7 -115 10 -52 4 -113 9 -135 12 -37 4
-5382 12 -5388 8z"/>
</g>
</svg>
